<svg width="352" height="352" viewBox="0 0 352 352" fill="none" xmlns="http://www.w3.org/2000/svg">
<path d="M240.377 23.6264C219.978 15.0091 198.329 10.6361 176 10.6361C153.671 10.6361 132.003 15.0091 111.622 23.6264C91.9211 31.9497 74.2416 43.8743 59.0431 59.0694C43.8446 74.2645 31.9174 91.94 23.5922 111.637C14.973 132.032 10.599 153.676 10.599 176C10.599 198.324 14.973 219.987 23.5922 240.363C31.9174 260.06 43.8446 277.736 59.0431 292.931C74.2416 308.126 91.9211 320.05 111.622 328.374C132.022 336.991 153.671 341.364 176 341.364C198.329 341.364 219.996 336.991 240.377 328.374C260.079 320.05 277.758 308.126 292.957 292.931C308.155 277.736 320.082 260.06 328.407 240.363C337.027 219.968 341.401 198.324 341.401 176C341.401 153.676 337.027 132.013 328.407 111.637C320.082 91.94 308.155 74.2645 292.957 59.0694C277.758 43.8743 260.079 31.9497 240.377 23.6264Z" fill="#009FDF"/>
<g filter="url(#filter0_d_352_38)"><path d="M176 312.554C251.799 312.554 313.246 251.121 313.246 175.339C313.246 99.5568 251.799 38.1234 176 38.1234C100.201 38.1234 38.7539 99.5568 38.7539 175.339C38.7539 251.121 100.201 312.554 176 312.554Z" fill="#33B2E5"/></g>
<g filter="url(#filter1_d_352_38)"><path d="M176 283.909C235.61 283.909 283.933 235.597 283.933 176C283.933 116.403 235.61 68.0908 176 68.0908C116.39 68.0908 68.0664 116.403 68.0664 176C68.0664 235.597 116.39 283.909 176 283.909Z" fill="#66C5EC"/></g>
<g filter="url(#filter2_d_352_38)"><path d="M254.62 176C254.62 219.417 219.426 254.603 176 254.603C132.573 254.603 97.379 219.417 97.379 176C97.379 132.583 132.573 97.3969 176 97.3969C219.426 97.3969 254.62 132.583 254.62 176Z" fill="#99D9F2"/></g>
<g filter="url(#filter3_d_352_38)"><path d="M225.289 176.019C225.289 203.23 203.217 225.279 176.018 225.279C148.819 225.279 126.747 203.23 126.747 176.019C126.747 148.807 148.819 126.777 176.018 126.777C203.217 126.777 225.289 148.825 225.289 176.019Z" fill="#CCECF9"/></g>
<mask id="mask0_352_38" style="mask-type:luminance" maskUnits="userSpaceOnUse" x="10" y="10" width="332" height="332"><path d="M240.377 23.6264C219.978 15.0091 198.329 10.6361 176 10.6361C153.671 10.6361 132.003 15.0091 111.622 23.6264C91.9211 31.9497 74.2416 43.8743 59.0431 59.0694C43.8446 74.2645 31.9174 91.94 23.5922 111.637C14.973 132.032 10.599 153.676 10.599 176C10.599 198.324 14.973 219.987 23.5922 240.363C31.9174 260.06 43.8446 277.736 59.0431 292.931C74.2416 308.126 91.9211 320.05 111.622 328.374C132.022 336.991 153.671 341.364 176 341.364C198.329 341.364 219.996 336.991 240.377 328.374C260.079 320.05 277.758 308.126 292.957 292.931C308.155 277.736 320.082 260.06 328.407 240.363C337.027 219.968 341.401 198.324 341.401 176C341.401 153.676 337.027 132.013 328.407 111.637C320.082 91.94 308.155 74.2645 292.957 59.0694C277.758 43.8743 260.079 31.9497 240.377 23.6264Z" fill="white"/></mask>
<g mask="url(#mask0_352_38)"><path d="M172.177 170.525C170.1 172.638 170.119 176.018 172.232 178.095L290.751 295.08C291.376 295.687 298.837 288.007 298.212 287.419L179.749 170.47C177.635 168.393 174.254 168.412 172.177 170.525Z" fill="white"/></g>
<g filter="url(#filter4_d_352_38)"><path d="M196.068 176.037C196.068 187.116 187.081 196.101 176 196.101C164.918 196.101 155.931 187.116 155.931 176.037C155.931 164.957 164.918 155.973 176 155.973C187.081 155.973 196.068 164.957 196.068 176.037Z" fill="white"/></g>
<defs>
<filter id="filter0_d_352_38" x="35.8739" y="35.2434" width="280.252" height="280.191" filterUnits="userSpaceOnUse" color-interpolation-filters="sRGB"><feFlood flood-opacity="0" result="BackgroundImageFix"/><feColorMatrix in="SourceAlpha" type="matrix" values="0 0 0 0 0 0 0 0 0 0 0 0 0 0 0 0 0 0 127 0" result="hardAlpha"/><feOffset/><feGaussianBlur stdDeviation="1.44"/><feColorMatrix type="matrix" values="0 0 0 0 0.133333 0 0 0 0 0.121569 0 0 0 0 0.121569 0 0 0 0.1 0"/><feBlend mode="normal" in2="BackgroundImageFix" result="effect1_dropShadow_352_38"/><feBlend mode="normal" in="SourceGraphic" in2="effect1_dropShadow_352_38" result="shape"/></filter>
<filter id="filter1_d_352_38" x="65.1864" y="65.2108" width="221.626" height="221.578" filterUnits="userSpaceOnUse" color-interpolation-filters="sRGB"><feFlood flood-opacity="0" result="BackgroundImageFix"/><feColorMatrix in="SourceAlpha" type="matrix" values="0 0 0 0 0 0 0 0 0 0 0 0 0 0 0 0 0 0 127 0" result="hardAlpha"/><feOffset/><feGaussianBlur stdDeviation="1.44"/><feColorMatrix type="matrix" values="0 0 0 0 0.133333 0 0 0 0 0.121569 0 0 0 0 0.121569 0 0 0 0.1 0"/><feBlend mode="normal" in2="BackgroundImageFix" result="effect1_dropShadow_352_38"/><feBlend mode="normal" in="SourceGraphic" in2="effect1_dropShadow_352_38" result="shape"/></filter>
<filter id="filter2_d_352_38" x="94.499" y="94.5169" width="163.001" height="162.966" filterUnits="userSpaceOnUse" color-interpolation-filters="sRGB"><feFlood flood-opacity="0" result="BackgroundImageFix"/><feColorMatrix in="SourceAlpha" type="matrix" values="0 0 0 0 0 0 0 0 0 0 0 0 0 0 0 0 0 0 127 0" result="hardAlpha"/><feOffset/><feGaussianBlur stdDeviation="1.44"/><feColorMatrix type="matrix" values="0 0 0 0 0.133333 0 0 0 0 0.121569 0 0 0 0 0.121569 0 0 0 0.1 0"/><feBlend mode="normal" in2="BackgroundImageFix" result="effect1_dropShadow_352_38"/><feBlend mode="normal" in="SourceGraphic" in2="effect1_dropShadow_352_38" result="shape"/></filter>
<filter id="filter3_d_352_38" x="123.867" y="123.897" width="104.302" height="104.262" filterUnits="userSpaceOnUse" color-interpolation-filters="sRGB"><feFlood flood-opacity="0" result="BackgroundImageFix"/><feColorMatrix in="SourceAlpha" type="matrix" values="0 0 0 0 0 0 0 0 0 0 0 0 0 0 0 0 0 0 127 0" result="hardAlpha"/><feOffset/><feGaussianBlur stdDeviation="1.44"/><feColorMatrix type="matrix" values="0 0 0 0 0.133333 0 0 0 0 0.121569 0 0 0 0 0.121569 0 0 0 0.1 0"/><feBlend mode="normal" in2="BackgroundImageFix" result="effect1_dropShadow_352_38"/><feBlend mode="normal" in="SourceGraphic" in2="effect1_dropShadow_352_38" result="shape"/></filter>
<filter id="filter4_d_352_38" x="153.051" y="153.093" width="45.8973" height="45.8883" filterUnits="userSpaceOnUse" color-interpolation-filters="sRGB"><feFlood flood-opacity="0" result="BackgroundImageFix"/><feColorMatrix in="SourceAlpha" type="matrix" values="0 0 0 0 0 0 0 0 0 0 0 0 0 0 0 0 0 0 127 0" result="hardAlpha"/><feOffset/><feGaussianBlur stdDeviation="1.44"/><feColorMatrix type="matrix" values="0 0 0 0 0.133333 0 0 0 0 0.121569 0 0 0 0 0.121569 0 0 0 0.1 0"/><feBlend mode="normal" in2="BackgroundImageFix" result="effect1_dropShadow_352_38"/><feBlend mode="normal" in="SourceGraphic" in2="effect1_dropShadow_352_38" result="shape"/></filter>
</defs>
</svg>
