<svg width="100" height="100" viewBox="0 0 100 100" fill="none" xmlns="http://www.w3.org/2000/svg">
<path d="M68.2891 6.71214C62.4938 4.26405 56.3435 3.02173 50 3.02173C43.6565 3.02173 37.5009 4.26405 31.7109 6.71214C26.114 9.07672 21.0914 12.4644 16.7736 16.7812C12.4559 21.098 9.06745 26.1194 6.70234 31.7151C4.2537 37.5091 3.01111 43.658 3.01111 50.0001C3.01111 56.3422 4.2537 62.4964 6.70234 68.2852C9.06745 73.8808 12.4559 78.9023 16.7736 83.2191C21.0914 87.5359 26.114 90.9235 31.7109 93.2881C37.5061 95.7362 43.6565 96.9785 50 96.9785C56.3435 96.9785 62.499 95.7362 68.2891 93.2881C73.886 90.9235 78.9086 87.5359 83.2263 83.2191C87.5441 78.9023 90.9325 73.8808 93.2976 68.2852C95.7462 62.4912 96.9888 56.3422 96.9888 50.0001C96.9888 43.658 95.7462 37.5039 93.2976 31.7151C90.9325 26.1194 87.5441 21.098 83.2263 16.7812C78.9086 12.4644 73.886 9.07672 68.2891 6.71214Z" fill="#009FDF"></path>
<g filter="url(#filter0_d_333_1023)">
<path d="M50 88.7938C71.5337 88.7938 88.9903 71.3411 88.9903 49.8122C88.9903 28.2832 71.5337 10.8306 50 10.8306C28.4662 10.8306 11.0096 28.2832 11.0096 49.8122C11.0096 71.3411 28.4662 88.7938 50 88.7938Z" fill="#33B2E5"></path>
</g>
<g filter="url(#filter1_d_333_1023)">
<path d="M49.9999 80.656C66.9345 80.656 80.6627 66.9309 80.6627 50C80.6627 33.0692 66.9345 19.344 49.9999 19.344C33.0653 19.344 19.337 33.0692 19.337 50C19.337 66.9309 33.0653 80.656 49.9999 80.656Z" fill="#66C5EC"></path>
</g>
<g filter="url(#filter2_d_333_1023)">
<path d="M72.3353 50.0001C72.3353 62.3345 62.3371 72.3305 49.9999 72.3305C37.6627 72.3305 27.6646 62.3345 27.6646 50.0001C27.6646 37.6656 37.6627 27.6697 49.9999 27.6697C62.3371 27.6697 72.3353 37.6656 72.3353 50.0001Z" fill="#99D9F2"></path>
</g>
<g filter="url(#filter3_d_333_1023)">
<path d="M64.0026 50.0055C64.0026 57.736 57.7322 63.9998 50.0051 63.9998C42.2781 63.9998 36.0077 57.736 36.0077 50.0055C36.0077 42.2749 42.2781 36.0164 50.0051 36.0164C57.7322 36.0164 64.0026 42.2801 64.0026 50.0055Z" fill="#CCECF9"></path>
</g>
<mask id="mask0_333_1023" style="mask-type:luminance" maskUnits="userSpaceOnUse" x="3" y="3" width="94" height="94">
<path d="M68.2891 6.71214C62.4938 4.26405 56.3435 3.02173 50 3.02173C43.6565 3.02173 37.5009 4.26405 31.7109 6.71214C26.114 9.07672 21.0914 12.4644 16.7736 16.7812C12.4559 21.098 9.06745 26.1194 6.70234 31.7151C4.2537 37.5091 3.01111 43.658 3.01111 50.0001C3.01111 56.3422 4.2537 62.4964 6.70234 68.2852C9.06745 73.8808 12.4559 78.9023 16.7736 83.2191C21.0914 87.5359 26.114 90.9235 31.7109 93.2881C37.5061 95.7362 43.6565 96.9785 50 96.9785C56.3435 96.9785 62.499 95.7362 68.2891 93.2881C73.886 90.9235 78.9086 87.5359 83.2263 83.2191C87.5441 78.9023 90.9325 73.8808 93.2976 68.2852C95.7462 62.4912 96.9888 56.3422 96.9888 50.0001C96.9888 43.658 95.7462 37.5039 93.2976 31.7151C90.9325 26.1194 87.5441 21.098 83.2263 16.7812C78.9086 12.4644 73.886 9.07672 68.2891 6.71214Z" fill="white"></path>
</mask>
<g mask="url(#mask0_333_1023)">
<path d="M48.9139 48.4446C48.324 49.0449 48.3292 50.0054 48.9296 50.5952L82.5997 83.8298C82.7772 84.0021 84.897 81.8202 84.7194 81.6531L51.065 48.429C50.4646 47.8391 49.5039 47.8444 48.9139 48.4446Z" fill="white"></path>
</g>
<g filter="url(#filter4_d_333_1023)">
<path d="M55.7012 50.0106C55.7012 53.1581 53.1482 55.7106 49.9999 55.7106C46.8517 55.7106 44.2986 53.1581 44.2986 50.0106C44.2986 46.863 46.8517 44.3105 49.9999 44.3105C53.1482 44.3105 55.7012 46.863 55.7012 50.0106Z" fill="white"></path>
</g>
<defs>
<filter id="filter0_d_333_1023" x="8.12964" y="7.95057" width="83.7406" height="83.7231" filterUnits="userSpaceOnUse" color-interpolation-filters="sRGB">
<feFlood flood-opacity="0" result="BackgroundImageFix"></feFlood>
<feColorMatrix in="SourceAlpha" type="matrix" values="0 0 0 0 0 0 0 0 0 0 0 0 0 0 0 0 0 0 127 0" result="hardAlpha"></feColorMatrix>
<feOffset></feOffset>
<feGaussianBlur stdDeviation="1.44"></feGaussianBlur>
<feColorMatrix type="matrix" values="0 0 0 0 0.133333 0 0 0 0 0.121569 0 0 0 0 0.121569 0 0 0 0.1 0"></feColorMatrix>
<feBlend mode="normal" in2="BackgroundImageFix" result="effect1_dropShadow_333_1023"></feBlend>
<feBlend mode="normal" in="SourceGraphic" in2="effect1_dropShadow_333_1023" result="shape"></feBlend>
</filter>
<filter id="filter1_d_333_1023" x="16.457" y="16.464" width="67.0857" height="67.072" filterUnits="userSpaceOnUse" color-interpolation-filters="sRGB">
<feFlood flood-opacity="0" result="BackgroundImageFix"></feFlood>
<feColorMatrix in="SourceAlpha" type="matrix" values="0 0 0 0 0 0 0 0 0 0 0 0 0 0 0 0 0 0 127 0" result="hardAlpha"></feColorMatrix>
<feOffset></feOffset>
<feGaussianBlur stdDeviation="1.44"></feGaussianBlur>
<feColorMatrix type="matrix" values="0 0 0 0 0.133333 0 0 0 0 0.121569 0 0 0 0 0.121569 0 0 0 0.1 0"></feColorMatrix>
<feBlend mode="normal" in2="BackgroundImageFix" result="effect1_dropShadow_333_1023"></feBlend>
<feBlend mode="normal" in="SourceGraphic" in2="effect1_dropShadow_333_1023" result="shape"></feBlend>
</filter>
<filter id="filter2_d_333_1023" x="24.7846" y="24.7897" width="50.4308" height="50.4209" filterUnits="userSpaceOnUse" color-interpolation-filters="sRGB">
<feFlood flood-opacity="0" result="BackgroundImageFix"></feFlood>
<feColorMatrix in="SourceAlpha" type="matrix" values="0 0 0 0 0 0 0 0 0 0 0 0 0 0 0 0 0 0 127 0" result="hardAlpha"></feColorMatrix>
<feOffset></feOffset>
<feGaussianBlur stdDeviation="1.44"></feGaussianBlur>
<feColorMatrix type="matrix" values="0 0 0 0 0.133333 0 0 0 0 0.121569 0 0 0 0 0.121569 0 0 0 0.1 0"></feColorMatrix>
<feBlend mode="normal" in2="BackgroundImageFix" result="effect1_dropShadow_333_1023"></feBlend>
<feBlend mode="normal" in="SourceGraphic" in2="effect1_dropShadow_333_1023" result="shape"></feBlend>
</filter>
<filter id="filter3_d_333_1023" x="33.1277" y="33.1364" width="33.7549" height="33.7434" filterUnits="userSpaceOnUse" color-interpolation-filters="sRGB">
<feFlood flood-opacity="0" result="BackgroundImageFix"></feFlood>
<feColorMatrix in="SourceAlpha" type="matrix" values="0 0 0 0 0 0 0 0 0 0 0 0 0 0 0 0 0 0 127 0" result="hardAlpha"></feColorMatrix>
<feOffset></feOffset>
<feGaussianBlur stdDeviation="1.44"></feGaussianBlur>
<feColorMatrix type="matrix" values="0 0 0 0 0.133333 0 0 0 0 0.121569 0 0 0 0 0.121569 0 0 0 0.1 0"></feColorMatrix>
<feBlend mode="normal" in2="BackgroundImageFix" result="effect1_dropShadow_333_1023"></feBlend>
<feBlend mode="normal" in="SourceGraphic" in2="effect1_dropShadow_333_1023" result="shape"></feBlend>
</filter>
<filter id="filter4_d_333_1023" x="41.4186" y="41.4305" width="17.1626" height="17.1601" filterUnits="userSpaceOnUse" color-interpolation-filters="sRGB">
<feFlood flood-opacity="0" result="BackgroundImageFix"></feFlood>
<feColorMatrix in="SourceAlpha" type="matrix" values="0 0 0 0 0 0 0 0 0 0 0 0 0 0 0 0 0 0 127 0" result="hardAlpha"></feColorMatrix>
<feOffset></feOffset>
<feGaussianBlur stdDeviation="1.44"></feGaussianBlur>
<feColorMatrix type="matrix" values="0 0 0 0 0.133333 0 0 0 0 0.121569 0 0 0 0 0.121569 0 0 0 0.1 0"></feColorMatrix>
<feBlend mode="normal" in2="BackgroundImageFix" result="effect1_dropShadow_333_1023"></feBlend>
<feBlend mode="normal" in="SourceGraphic" in2="effect1_dropShadow_333_1023" result="shape"></feBlend>
</filter>
</defs>
</svg>