<svg width="200" height="37" viewBox="0 0 200 37" fill="none" xmlns="http://www.w3.org/2000/svg">
<path fill-rule="evenodd" clip-rule="evenodd" d="M11.9712 3.8996C12.8495 7.33716 14.7297 6.27139 15.9853 7.89777C16.4059 8.43989 16.5296 9.0621 16.5296 9.0621C16.5296 9.0621 17.2842 7.68831 16.3626 6.22827C15.3297 4.59574 13.7339 5.35348 11.9712 3.89344V3.8996ZM0.188433 22.6214C-0.213602 20.1449 0.03999 19.2085 0.83169 17.6006C0.497692 19.1715 1.51824 19.6027 2.34087 19.4118C3.6212 19.0729 4.62319 15.7031 2.91609 12.9309C0.0214362 7.81152 3.38616 3.11722 6.21278 0C6.83748 3.83183 8.30336 5.59374 10.0847 6.82584C12.5402 8.84649 14.6617 8.61855 17.2347 11.9329C18.2986 13.3067 18.3666 14.8283 18.3666 14.8283C19.1521 14.2677 19.4181 12.5798 19.1398 11.6803C24.7188 17.2864 22.4859 28.5416 15.274 30.1988C14.1483 30.4575 14.0989 29.5643 14.371 28.6833C14.5442 28.1227 14.8349 27.5436 15.3111 26.8475C16.5977 24.9624 17.6801 24.0999 17.5625 21.4878C17.4079 18.0133 14.4514 15.3212 10.963 15.4752C7.47455 15.6292 4.77164 18.5739 4.92627 22.0485C5.04378 24.6851 6.21897 25.4429 7.67248 27.2171C8.32192 28.0057 9.82491 30.667 7.69103 30.3282C4.45001 29.8168 0.683248 25.7694 0.176065 22.6152L0.188433 22.6214Z" fill="#12ADED"></path>
<path d="M13.5669 32.2688C13.5669 32.2688 13.5174 32.2688 13.4989 32.2627L9.4414 31.5419C9.22492 31.5049 9.08266 31.2955 9.11977 31.0799C9.15688 30.8642 9.36718 30.7226 9.58366 30.7595L13.6411 31.4803C13.8576 31.5173 13.9999 31.7267 13.9628 31.9423C13.9256 32.1333 13.7586 32.2688 13.5731 32.2688H13.5669Z" fill="#12ADED"></path>
<path d="M13.5669 33.544C13.5669 33.544 13.5174 33.544 13.4989 33.5378L9.4414 32.8171C9.22492 32.7801 9.08266 32.5706 9.11977 32.355C9.15688 32.1394 9.36718 31.9977 9.58366 32.0347L13.6411 32.7554C13.8576 32.7924 13.9999 33.0019 13.9628 33.2175C13.9256 33.4085 13.7586 33.544 13.5731 33.544H13.5669Z" fill="#12ADED"></path>
<path d="M13.5669 34.8931C13.5669 34.8931 13.5174 34.8931 13.4989 34.8869L9.4414 34.1662C9.22492 34.1292 9.08266 33.9197 9.11977 33.7041C9.15688 33.4885 9.36718 33.3468 9.58366 33.3838L13.6411 34.1046C13.8576 34.1415 13.9999 34.351 13.9628 34.5666C13.9256 34.7576 13.7586 34.8931 13.5731 34.8931H13.5669Z" fill="#12ADED"></path>
<path d="M11.5381 37C10.6722 37 9.97327 36.2977 9.97327 35.4414C9.97327 35.2196 10.1526 35.0471 10.3691 35.0471C10.5856 35.0471 10.765 35.2258 10.765 35.4414C10.765 35.8665 11.1113 36.2053 11.5319 36.2053C11.9525 36.2053 12.2989 35.8603 12.2989 35.4414C12.2989 35.2196 12.4783 35.0471 12.6947 35.0471C12.9112 35.0471 13.0906 35.2258 13.0906 35.4414C13.0906 36.3039 12.3855 37 11.5257 37H11.5381Z" fill="#12ADED"></path>
<path d="M198.114 8.23052H197.687V9.59815H197.322V8.23052H196.883V7.93481H198.107V8.23052H198.114ZM199.647 8.4523L199.264 9.60431H199.072L198.689 8.45846V9.60431H198.342V7.93481H198.769L199.171 9.11147L199.586 7.93481H200V9.60431H199.654V8.4523H199.647Z" fill="#1A1818"></path>
<path d="M38.524 22.7569H48.5564V25.3505H34.5841V23.2436L44.2948 9.27154H34.6521V6.65332H48.2533V8.70477L38.5302 22.7507L38.524 22.7569Z" fill="#1A1818"></path>
<path d="M50.1893 18.2781C50.1893 16.9167 50.4614 15.6907 50.9996 14.6003C51.5438 13.5099 52.2984 12.6721 53.2819 12.0807C54.2591 11.4954 55.3848 11.1997 56.659 11.1997C58.5393 11.1997 60.067 11.8034 61.2422 13.0109C62.4174 14.2184 63.0482 15.8201 63.141 17.8161L63.1534 18.5492C63.1534 19.9168 62.8874 21.1428 62.3617 22.2209C61.8359 23.2989 61.0752 24.1368 60.0917 24.722C59.1083 25.3134 57.9702 25.6091 56.6837 25.6091C54.7168 25.6091 53.1396 24.9561 51.9582 23.6501C50.7769 22.3441 50.1831 20.6068 50.1831 18.4321V18.2781H50.1893ZM53.3252 18.5492C53.3252 19.9784 53.6221 21.0996 54.2158 21.9067C54.8096 22.7137 55.6322 23.1203 56.6899 23.1203C57.7476 23.1203 58.5702 22.7075 59.1578 21.8882C59.7454 21.0688 60.0423 19.8614 60.0423 18.2781C60.0423 16.8735 59.7392 15.7585 59.133 14.9391C58.5269 14.1198 57.7043 13.707 56.6651 13.707C55.626 13.707 54.8282 14.1136 54.2282 14.9207C53.6282 15.7277 53.3252 16.9413 53.3252 18.5492Z" fill="#1A1818"></path>
<path d="M68.7138 11.4584L68.8066 13.0663C69.8395 11.828 71.1941 11.2058 72.8703 11.2058C75.7773 11.2058 77.2555 12.863 77.305 16.1773V25.3565H74.1753V16.356C74.1753 15.475 73.9836 14.822 73.6001 14.397C73.2166 13.9719 72.5919 13.7624 71.726 13.7624C70.4642 13.7624 69.5241 14.3292 68.9056 15.4689V25.3565H65.7759V11.4646H68.7262L68.7138 11.4584Z" fill="#1A1818"></path>
<path d="M88.8279 25.3505C88.6919 25.0856 88.5682 24.6544 88.4692 24.0568C87.4734 25.0918 86.2549 25.6093 84.8076 25.6093C83.3603 25.6093 82.2655 25.2088 81.381 24.4141C80.4965 23.6194 80.0512 22.6337 80.0512 21.4632C80.0512 19.9847 80.6017 18.845 81.7088 18.0565C82.816 17.2618 84.3932 16.8675 86.4467 16.8675H88.3703V15.9557C88.3703 15.235 88.1661 14.662 87.7641 14.2308C87.3621 13.7996 86.7436 13.584 85.9209 13.584C85.2096 13.584 84.622 13.7626 84.1705 14.1199C83.719 14.4772 83.4902 14.9269 83.4902 15.4752H80.3605C80.3605 14.7113 80.6141 14.0029 81.1212 13.3375C81.6284 12.6722 82.3212 12.1547 83.1933 11.7789C84.0654 11.4031 85.0364 11.2122 86.1127 11.2122C87.7455 11.2122 89.0506 11.6188 90.0217 12.4381C90.9928 13.2574 91.4938 14.4033 91.5185 15.888V22.1532C91.5185 23.4038 91.6917 24.4018 92.0442 25.1472V25.3628H88.8465L88.8279 25.3505ZM85.3828 23.1081C86.0013 23.1081 86.5827 22.9602 87.127 22.6584C87.6713 22.3565 88.0857 21.9561 88.3579 21.4509V18.8327H86.6693C85.5065 18.8327 84.6344 19.036 84.053 19.4364C83.4654 19.8369 83.1747 20.4098 83.1747 21.1429C83.1747 21.7405 83.3726 22.221 83.7747 22.5721C84.1767 22.9294 84.7086 23.1081 85.3828 23.1081Z" fill="#1A1818"></path>
<path d="M102.083 14.3108C101.668 14.243 101.248 14.206 100.809 14.206C99.3736 14.206 98.4088 14.7543 97.9078 15.8509V25.3504H94.7781V11.4584H97.7717L97.8459 13.0109C98.6005 11.8034 99.652 11.1997 100.994 11.1997C101.44 11.1997 101.811 11.2613 102.101 11.3784L102.089 14.3046L102.083 14.3108Z" fill="#1A1818"></path>
<path d="M114.379 25.3504H111.132V6.65942H114.379V25.3566V25.3504Z" fill="#1A1818"></path>
<path d="M117.539 18.3028C117.539 16.1466 118.047 14.4217 119.067 13.1341C120.088 11.8466 121.436 11.1997 123.125 11.1997C124.714 11.1997 125.964 11.7542 126.879 12.8569L127.021 11.4584H129.842V24.9253C129.842 26.7488 129.273 28.1842 128.135 29.2377C126.997 30.2911 125.463 30.8148 123.527 30.8148C122.506 30.8148 121.504 30.6053 120.527 30.1802C119.55 29.7552 118.807 29.2007 118.3 28.5169L119.785 26.6441C120.75 27.7838 121.931 28.3506 123.341 28.3506C124.38 28.3506 125.203 28.0672 125.803 27.5066C126.403 26.946 126.706 26.1205 126.706 25.0362V24.0998C125.803 25.104 124.603 25.603 123.094 25.603C121.461 25.603 120.125 24.9561 119.092 23.6624C118.059 22.3687 117.539 20.5822 117.539 18.2966V18.3028ZM120.657 18.5738C120.657 19.9723 120.941 21.0688 121.516 21.8697C122.086 22.6706 122.883 23.071 123.898 23.071C125.16 23.071 126.1 22.5289 126.706 21.4508V15.3396C126.112 14.2861 125.184 13.7625 123.922 13.7625C122.89 13.7625 122.092 14.1691 121.516 14.9823C120.947 15.7954 120.657 16.9967 120.657 18.58V18.5738Z" fill="#1A1818"></path>
<path d="M135.959 11.4584L136.052 13.0663C137.085 11.828 138.439 11.2058 140.115 11.2058C143.022 11.2058 144.501 12.863 144.55 16.1773V25.3565H141.42V16.356C141.42 15.475 141.229 14.822 140.845 14.397C140.462 13.9719 139.837 13.7624 138.971 13.7624C137.709 13.7624 136.769 14.3292 136.151 15.4689V25.3565H133.021V11.4646H135.971L135.959 11.4584Z" fill="#1A1818"></path>
<path d="M147.742 7.84845C147.742 7.36793 147.896 6.97366 148.199 6.65331C148.502 6.33297 148.942 6.17896 149.511 6.17896C150.08 6.17896 150.519 6.33913 150.828 6.65331C151.137 6.9675 151.292 7.36793 151.292 7.84845C151.292 8.32897 151.137 8.71092 150.828 9.02511C150.519 9.3393 150.08 9.49331 149.511 9.49331C148.942 9.49331 148.509 9.3393 148.199 9.02511C147.89 8.71092 147.742 8.32281 147.742 7.84845ZM151.069 25.3505H147.94V11.4585H151.069V25.3505Z" fill="#1A1818"></path>
<path d="M158.405 8.08252V11.4585H160.867V13.7687H158.405V21.5247C158.405 22.0545 158.51 22.4365 158.72 22.6768C158.931 22.9109 159.308 23.0279 159.846 23.0279C160.205 23.0279 160.57 22.9848 160.941 22.8985V25.3135C160.229 25.5106 159.543 25.6092 158.881 25.6092C156.475 25.6092 155.269 24.2846 155.269 21.6418V13.7687H152.974V11.4585H155.269V8.08252H158.399H158.405Z" fill="#1A1818"></path>
<path d="M163.266 7.84845C163.266 7.36793 163.421 6.97366 163.724 6.65331C164.027 6.33297 164.466 6.17896 165.035 6.17896C165.604 6.17896 166.043 6.33913 166.353 6.65331C166.662 6.9675 166.817 7.36793 166.817 7.84845C166.817 8.32897 166.662 8.71092 166.353 9.02511C166.043 9.3393 165.604 9.49331 165.035 9.49331C164.466 9.49331 164.033 9.3393 163.724 9.02511C163.415 8.71092 163.266 8.32281 163.266 7.84845ZM166.594 25.3505H163.464V11.4585H166.594V25.3505Z" fill="#1A1818"></path>
<path d="M169.414 18.2781C169.414 16.9167 169.687 15.6907 170.225 14.6003C170.769 13.5099 171.524 12.6721 172.507 12.0807C173.484 11.4954 174.61 11.1997 175.884 11.1997C177.764 11.1997 179.292 11.8034 180.467 13.0109C181.642 14.2184 182.273 15.8201 182.366 17.8161L182.378 18.5492C182.378 19.9168 182.113 21.1428 181.587 22.2209C181.061 23.2989 180.3 24.1368 179.317 24.722C178.333 25.3134 177.195 25.6091 175.909 25.6091C173.942 25.6091 172.365 24.9561 171.183 23.6501C170.002 22.3441 169.408 20.6068 169.408 18.4321V18.2781H169.414ZM172.55 18.5492C172.55 19.9784 172.847 21.0996 173.441 21.9067C174.035 22.7137 174.857 23.1203 175.915 23.1203C176.973 23.1203 177.795 22.7075 178.383 21.8882C178.97 21.0688 179.267 19.8614 179.267 18.2781C179.267 16.8735 178.964 15.7585 178.358 14.9391C177.752 14.1198 176.929 13.707 175.89 13.707C174.851 13.707 174.053 14.1136 173.453 14.9207C172.853 15.7277 172.55 16.9413 172.55 18.5492Z" fill="#1A1818"></path>
<path d="M187.945 11.4584L188.038 13.0663C189.071 11.828 190.425 11.2058 192.102 11.2058C195.009 11.2058 196.487 12.863 196.536 16.1773V25.3565H193.407V16.356C193.407 15.475 193.215 14.822 192.831 14.397C192.448 13.9719 191.823 13.7624 190.957 13.7624C189.696 13.7624 188.755 14.3292 188.137 15.4689V25.3565H185.007V11.4646H187.958L187.945 11.4584Z" fill="#1A1818"></path>
</svg>